<svg width="476" height="51" viewBox="0 0 476 51" fill="none" xmlns="http://www.w3.org/2000/svg">
<path fill-rule="evenodd" clip-rule="evenodd" d="M161.913 0.0229517C163.206 15.9774 164.499 32.4889 165.793 48.3782H149.692V39.6554H133.268C132.557 39.6554 132.104 40.3344 131.781 40.9205C130.487 43.0695 129.194 45.1533 127.836 47.2372C127.642 47.5628 127.116 48.3782 126.482 48.3782H111.865L111.891 48.3405C112.729 47.1149 133.803 16.3258 144.196 1.39243C144.842 0.415624 145.554 0.024902 146.782 0.024902L161.913 0.0229517ZM138.764 29.7198C142.32 24.0543 148.998 13.7842 148.998 13.7842C149.24 13.412 149.433 13.4712 149.433 13.9118V29.7198H138.764Z" fill="#2B2E3D"/>
<path fill-rule="evenodd" clip-rule="evenodd" d="M118.012 0.0206017C115.017 0.0350145 112.069 0.049199 109.149 0.00595796C108.373 -0.0591624 108.05 0.415624 107.856 1.13195C105.916 7.64398 103.911 14.0909 101.907 20.5378C101.654 21.3584 101.389 22.179 101.117 23.021C100.763 24.1167 100.397 25.2486 100.032 26.4638C99.9233 26.2182 99.8263 26.007 99.7407 25.8205C99.6219 25.5617 99.5249 25.3506 99.4497 25.1614C97.8655 21.189 96.2813 17.2004 94.6971 13.2118C93.1129 9.22314 91.5287 5.23452 89.9445 1.26219C89.6211 0.480744 89.2332 0.00595796 88.3279 0.00595796C84.3189 0.0710783 80.3099 0.0710783 76.3008 0.00595796C75.3309 0.00595796 74.7995 0.545865 74.5409 1.39243C72.5687 7.8069 70.6161 14.2377 68.6636 20.6684C66.7111 27.0989 64.7587 33.5294 62.7865 39.9437C62.303 41.442 61.8203 43.1023 61.3374 44.7631C60.9809 45.9896 60.6242 47.2164 60.2671 48.3782H74.749C76.3853 43.1598 77.9981 37.8107 79.6158 32.4457C80.683 28.9065 81.7522 25.3604 82.8317 21.8402C82.9287 22.0681 83.0257 22.2635 83.1146 22.4426C83.2035 22.6217 83.2843 22.7845 83.349 22.9473C86.582 30.9571 89.7505 38.9669 92.9189 46.9767C93.2422 47.7581 93.6302 48.3782 94.4708 48.3782H106.692C107.662 48.3782 107.985 47.693 108.244 46.8464C112.77 32.1292 122.34 0.917643 122.599 0.00595796C121.056 0.00595796 119.528 0.013309 118.012 0.0206017ZM199.417 0.155143C198.77 0.155143 198.382 0.155143 197.93 0.0900224C196.529 0.0900224 195.128 0.097258 193.727 0.104494C190.925 0.118965 188.123 0.133436 185.321 0.0900224C184.351 0.0900224 183.898 0.415624 183.575 1.39243C179.501 14.9375 169.284 48.3782 169.284 48.3782H207.763C208.41 48.3782 208.793 47.6279 208.922 47.1069C209.633 44.633 210.409 42.159 211.185 39.6851L211.185 39.6832C211.466 38.8807 211.714 38.0782 211.976 37.226C212.076 36.9027 212.178 36.5722 212.284 36.2318H188.295C189.595 32.0332 190.864 27.8659 192.123 23.7298C192.681 21.9 193.236 20.0762 193.791 18.2586C194.166 17.0597 194.542 15.8634 194.917 14.667C196.417 9.88531 197.917 5.10356 199.417 0.155143ZM56.3022 46.586C60.0526 34.0828 70.576 0.00595796 70.576 0.00595796H56.4608C55.4908 0.00595796 55.0395 0.350504 54.7162 1.32731C50.5778 14.8723 40.4424 48.3782 40.4424 48.3782H54.3447C55.344 48.3782 55.9789 47.693 56.3022 46.586ZM47.2677 10.1837L50.4361 0.00595796H14.4842L0 48.3782H14.4842L20.4978 28.3523H37.1158L40.0903 18.5842H23.4722L26.0587 10.1837H47.2677Z" fill="#2B2E3D"/>
<path fill-rule="evenodd" clip-rule="evenodd" d="M355.115 0.556552C357.307 0.556552 359.561 0.654014 361.752 1.03235C367.45 1.91512 369.704 6.73269 368.702 12.0293C367.074 20.2265 360.889 25.9511 352.799 28.0454C355.725 29.7337 357.682 32.3331 358.496 35.612C359.561 39.8998 361.314 48.6136 361.314 48.9288H345.536C344.784 48.9288 344.471 48.9797 344.283 48.2861L344.283 48.2829C343.219 43.6179 342.154 38.9529 341.028 34.2878C340.903 33.8465 340.777 33.342 340.652 32.9006C339.954 30.3223 338.336 29.7522 335.9 29.7635C335.715 29.7644 335.014 29.7546 334.819 29.7635L334.579 30.5045C332.763 36.2426 331.01 41.9806 329.257 47.6556C329.257 47.6556 329.069 48.8658 327.191 48.9288H313.854L313.867 48.8901C314.258 47.6316 324.088 16.0245 328.505 1.68826C328.693 0.994655 329.006 0.556552 329.695 0.556552H355.115ZM340.652 11.2096C340.715 10.9574 341.09 10.7052 341.341 10.7052C344.158 10.7052 347.038 10.7052 349.856 10.8943C352.861 11.0835 353.926 12.9121 352.861 15.7496C352.11 17.8304 350.607 19.2176 348.416 19.7851C344.972 20.731 341.466 20.5418 337.772 20.4787C338.774 17.2629 339.713 14.1732 340.652 11.2096Z" fill="#E83F2C"/>
<path fill-rule="evenodd" clip-rule="evenodd" d="M267.05 11.8908C267.551 6.3358 265.044 2.5483 259.716 1.09643C253.511 -0.544816 247.305 -0.229191 241.163 1.28581C236.775 2.35893 233.077 4.63143 230.068 8.04017C228.313 9.99704 226.997 12.2695 226.308 14.8577C224.991 19.8445 226.558 23.5689 231.009 26.157C233.655 27.712 236.593 28.5341 239.524 29.3541C239.924 29.4661 240.325 29.5782 240.724 29.692C242.479 30.1339 244.171 30.8283 245.801 31.5858C247.18 32.2801 247.807 33.8583 247.305 35.3101C246.992 36.1308 246.553 37.0145 245.989 37.7089C243.67 40.3601 240.599 40.9282 237.277 40.3601C234.769 39.9182 233.39 38.4032 233.14 35.8151C233.098 35.0688 233.111 34.3497 233.125 33.5862C233.132 33.1874 233.14 32.7765 233.14 32.3433C228.564 32.6589 223.988 32.9114 219.287 33.1639C219.037 33.227 218.723 33.6689 218.661 33.9214C218.472 35.3101 218.284 36.762 218.284 38.1507C218.41 44.337 221.23 47.9351 227.248 49.1976C233.704 50.5864 240.223 50.5864 246.553 48.5664C253.573 46.357 258.901 41.8751 261.785 34.9314C264.793 27.7983 262.662 22.4958 255.517 19.7183C253.425 18.8844 251.212 18.2642 249.004 17.6454C248.036 17.3741 247.07 17.1031 246.114 16.8145C245.616 16.6472 245.1 16.5071 244.583 16.3667C243.734 16.1362 242.882 15.9051 242.103 15.552C240.536 14.8577 240.097 13.532 241.037 12.0802C241.476 11.3858 242.166 10.6914 242.855 10.1864C244.798 8.86079 246.992 8.86079 249.186 9.30267C251.38 9.74454 252.445 11.1333 252.508 13.4058V15.2364C252.759 15.2995 252.884 15.2995 253.009 15.2995C256.77 15.1102 260.531 14.9208 264.292 14.6683C266.793 14.5423 266.799 14.4792 267.048 11.9097L267.05 11.8908ZM411.272 0.718693C409.141 0.27684 406.948 0.150596 404.817 0.0874741C399.865 -0.101892 394.914 0.150596 390.213 1.85489C382.065 4.75849 376.11 10.2501 372.036 17.8247C369.216 23.127 367.461 28.8079 367.524 34.8676C367.649 42.7579 371.66 47.7445 379.307 49.3857C384.885 50.5219 390.464 50.2694 396.042 49.1963C401.934 48.0601 407.136 45.409 412.275 42.5054C412.589 42.316 412.839 41.9373 412.965 41.5586C414.218 37.645 415.409 33.7314 416.6 29.8179C417.477 27.1668 418.292 24.5156 419.107 21.8014C419.011 21.7773 418.934 21.7532 418.868 21.7326C418.761 21.6993 418.683 21.6752 418.606 21.6752H396.857C396.293 21.6752 396.042 21.9277 395.916 22.4326C395.572 23.5057 395.243 24.5788 394.914 25.6518C394.585 26.7249 394.256 27.798 393.911 28.8711C393.643 29.6797 393.421 30.4422 393.167 31.316C393.123 31.4654 393.079 31.618 393.033 31.7747H402.874C402.484 34.6551 400.429 37.14 397.922 38.0237C394.914 39.0968 391.842 39.8543 388.583 39.4124C385.261 38.9706 383.068 36.8875 382.692 33.7314C382.629 32.8477 382.566 31.9009 382.692 31.0172C383.256 26.3462 384.572 21.9277 387.079 17.951C390.15 13.0275 394.538 10.3132 400.492 10.8182C403.563 11.0707 405.255 12.7119 405.694 15.7417C405.694 15.8915 405.733 16.0414 405.781 16.2225C405.793 16.2703 405.806 16.3202 405.82 16.3729C408.327 15.9311 410.834 15.505 413.341 15.0789C415.848 14.6529 418.355 14.2268 420.862 13.7849V11.765C420.423 5.45284 417.352 1.85489 411.272 0.718693ZM468.642 10.1377C468.955 8.93962 470.896 2.57432 471.522 0.556552H432.891C432.015 0.556552 431.701 1.05771 431.451 1.87743C427.068 16.254 416.925 48.9288 416.925 48.9288H456.683C456.733 48.9288 456.781 48.9292 456.825 48.9296C457.28 48.9335 457.446 48.9349 457.56 48.4753C457.69 48.0502 457.859 47.497 458.052 46.8671C458.973 43.8532 460.432 39.0839 460.69 38.1973H435.145C435.521 36.8881 435.91 35.6327 436.293 34.3937C436.741 32.9474 437.182 31.5235 437.587 30.0631C437.9 29.0543 438.276 28.739 439.34 28.739C446.29 28.802 453.177 28.802 460.127 28.802C460.878 28.802 461.254 28.6129 461.442 27.8562C461.629 27.0552 462.725 23.5782 463.529 21.0299C463.8 20.168 464.038 19.4123 464.197 18.9024H441.093L442.972 12.4077C443.222 11.3988 443.66 11.0835 444.725 11.0835C452.238 11.1466 459.751 11.1466 467.265 11.1466C468.079 11.1466 468.454 10.9574 468.642 10.1377ZM475.439 44.1709C475.439 41.5432 473.309 39.413 470.681 39.413C468.053 39.413 465.923 41.5432 465.923 44.1709C465.923 46.7986 468.053 48.9288 470.681 48.9288C473.309 48.9288 475.439 46.7986 475.439 44.1709ZM466.716 44.1709C466.716 41.9811 468.491 40.206 470.681 40.206C472.871 40.206 474.646 41.9811 474.646 44.1709C474.646 46.3607 472.871 48.1359 470.681 48.1359C468.491 48.1359 466.716 46.3607 466.716 44.1709ZM472.199 42.159C471.804 41.9134 471.243 41.7911 470.516 41.7919L468.302 41.7946L468.312 46.5499L469.406 46.5486L469.402 44.7163L470.622 44.7149L471.888 46.5456L473.06 46.5442L473.06 46.5017L471.642 44.521C472.005 44.4051 472.288 44.2399 472.491 44.0252C472.693 43.8105 472.794 43.5442 472.794 43.2263C472.793 42.7603 472.595 42.4046 472.199 42.159ZM469.398 42.4595L470.552 42.4582C470.933 42.4621 471.219 42.5336 471.411 42.6727C471.603 42.8118 471.699 43.0088 471.7 43.2635C471.7 43.5074 471.597 43.6996 471.39 43.8403C471.182 43.981 470.894 44.0516 470.525 44.052L469.401 44.0534L469.398 42.4595Z" fill="#E83F2C"/>
<path d="M278.446 0.556552H292.103C291.351 2.95387 283.082 30.2691 283.082 30.2691C282.769 31.4046 282.518 32.5402 282.456 33.7389C282.393 36.4516 283.896 38.2181 286.59 38.7228C291.915 39.7322 296.863 37.0825 298.805 32.0355C298.805 32.0355 306.323 8.12541 308.202 1.87976C308.452 1.12271 308.766 0.556552 309.58 0.556552H323.593C320.774 9.8304 317.41 20.3644 314.529 29.5751C312.023 37.7134 307.074 43.8959 299.369 47.6181C295.36 49.5738 291.038 50.0785 286.653 50.0785C282.894 50.0785 279.073 49.9523 275.44 48.9429C270.491 47.555 267.296 43.0758 267.233 37.9026C267.171 33.6758 268.361 29.7013 269.614 25.7899C270.428 23.1405 271.249 20.4911 272.07 17.8417L272.071 17.8406C273.713 12.5413 275.356 7.24209 276.943 1.94284C277.194 1.12271 277.569 0.493465 278.446 0.556552Z" fill="#E83F2C"/>
</svg>
